<svg xmlns="http://www.w3.org/2000/svg" width="44" height="32" viewBox="0 0 44 32" fill="none">
<path d="M0 2C0 1.46957 0.210714 0.96086 0.585786 0.585787C0.960859 0.210714 1.46957 0 2 0H42C42.5304 0 43.0391 0.210714 43.4142 0.585787C43.7893 0.96086 44 1.46957 44 2V30C44 30.5304 43.7893 31.0391 43.4142 31.4142C43.0391 31.7893 42.5304 32 42 32H2C1.46957 32 0.960859 31.7893 0.585786 31.4142C0.210714 31.0391 0 30.5304 0 30V2ZM24 8V12H36V8H24ZM34 16H24V20H34V16ZM19 12C19 10.6739 18.4732 9.40215 17.5355 8.46447C16.5979 7.52678 15.3261 7 14 7C12.6739 7 11.4021 7.52678 10.4645 8.46447C9.52678 9.40215 9 10.6739 9 12C9 13.3261 9.52678 14.5979 10.4645 15.5355C11.4021 16.4732 12.6739 17 14 17C15.3261 17 16.5979 16.4732 17.5355 15.5355C18.4732 14.5979 19 13.3261 19 12ZM14 19C12.1435 19 10.363 19.7375 9.05025 21.0503C7.7375 22.363 7 24.1435 7 26H21C21 24.1435 20.2625 22.363 18.9497 21.0503C17.637 19.7375 15.8565 19 14 19Z" fill="currentColor"/>
</svg>