<svg width="40" height="39" viewBox="0 0 40 39" fill="none" xmlns="http://www.w3.org/2000/svg">
<path d="M8.91 32L0 39V2C0 1.46957 0.210714 0.960859 0.585786 0.585786C0.960859 0.210714 1.46957 0 2 0H38C38.5304 0 39.0391 0.210714 39.4142 0.585786C39.7893 0.960859 40 1.46957 40 2V30C40 30.5304 39.7893 31.0391 39.4142 31.4142C39.0391 31.7893 38.5304 32 38 32H8.91ZM20.036 23.4L26.752 16.682C27.1819 16.267 27.5248 15.7705 27.7607 15.2215C27.9966 14.6725 28.1208 14.082 28.1261 13.4845C28.1314 12.887 28.0176 12.2944 27.7915 11.7414C27.5653 11.1883 27.2312 10.6858 26.8088 10.2632C26.3863 9.84065 25.884 9.50643 25.331 9.28008C24.778 9.05373 24.1854 8.93978 23.5879 8.94488C22.9904 8.94998 22.3999 9.07402 21.8508 9.30977C21.3018 9.54553 20.8052 9.88827 20.39 10.318L20.036 10.672L19.682 10.318C19.2641 9.90014 18.7681 9.56866 18.2221 9.34252C17.6761 9.11637 17.091 8.99997 16.5 8.99997C15.909 8.99997 15.3239 9.11637 14.7779 9.34252C14.2319 9.56866 13.7359 9.90014 13.318 10.318C12.4741 11.1619 12 12.3065 12 13.5C12 14.6935 12.4741 15.8381 13.318 16.682L20.036 23.4Z" fill="currentColor"/>
</svg>
