<svg width="42" height="36" viewBox="0 0 42 36" fill="none" xmlns="http://www.w3.org/2000/svg">
<path d="M39.75 0H2.25C1.65326 0 1.08097 0.237053 0.65901 0.659009C0.237053 1.08097 0 1.65326 0 2.25V33.75C0 34.3467 0.237053 34.919 0.65901 35.341C1.08097 35.7629 1.65326 36 2.25 36H39.75C40.3467 36 40.919 35.7629 41.341 35.341C41.7629 34.919 42 34.3467 42 33.75V2.25C42 1.65326 41.7629 1.08097 41.341 0.659009C40.919 0.237053 40.3467 0 39.75 0ZM28.0894 6.01875C29.0106 5.93434 29.9354 6.13589 30.738 6.59595C31.5405 7.05602 32.1818 7.75224 32.5745 8.58983C32.9671 9.42742 33.0921 10.3657 32.9324 11.2768C32.7727 12.188 32.3361 13.0278 31.682 13.682C31.0278 14.3361 30.188 14.7727 29.2768 14.9324C28.3657 15.0921 27.4274 14.9671 26.5898 14.5744C25.7522 14.1818 25.056 13.5405 24.596 12.738C24.1359 11.9354 23.9343 11.0106 24.0188 10.0894C24.1147 9.04215 24.5744 8.0616 25.318 7.318C26.0616 6.57439 27.0421 6.1147 28.0894 6.01875ZM4.125 33C3.82663 33 3.54048 32.8815 3.3295 32.6705C3.11853 32.4595 3 32.1734 3 31.875V23.6597L15.06 12.9375L24.1491 22.0078L13.1597 33H4.125ZM39 31.875C39 32.1734 38.8815 32.4595 38.6705 32.6705C38.4595 32.8815 38.1734 33 37.875 33H17.4028L31.4212 18.9816L39 25.2975V31.875Z" fill="currentColor"/>
</svg>
