<svg width="39" height="39" viewBox="0 0 39 39" fill="none" xmlns="http://www.w3.org/2000/svg">
<path d="M34.4986 28.5C33.3173 28.4212 32.5298 28.125 31.8736 27.375C30.5611 25.875 30.5611 24 32.3883 22.455L35.4652 19.7231C40.178 15.5597 40.178 8.73469 35.4652 4.57031C31.9917 1.51312 27.3305 0 22.4855 0C16.8286 0 10.9177 2.0625 6.36047 6.10406C-2.12016 13.6041 -2.12016 25.8778 6.36047 33.3731C10.5792 37.1006 16.2633 38.9597 21.8892 38.9981H22.0617C27.6867 38.9981 33.2245 37.17 37.1742 33.6759C38.9986 32.0625 38.9986 31.5938 37.1817 28.8337C36.7486 28.125 35.9048 28.5938 34.4986 28.5ZM5.99859 15C5.99859 14.4067 6.17454 13.8266 6.50418 13.3333C6.83383 12.8399 7.30236 12.4554 7.85054 12.2284C8.39872 12.0013 9.00192 11.9419 9.58386 12.0576C10.1658 12.1734 10.7004 12.4591 11.1199 12.8787C11.5395 13.2982 11.8252 13.8328 11.9409 14.4147C12.0567 14.9967 11.9973 15.5999 11.7702 16.1481C11.5432 16.6962 11.1587 17.1648 10.6653 17.4944C10.172 17.8241 9.59194 18 8.99859 18C8.20294 18 7.43988 17.6839 6.87727 17.1213C6.31466 16.5587 5.99859 15.7956 5.99859 15ZM9.74859 27.6562C9.15525 27.6562 8.57523 27.4803 8.08188 27.1507C7.58854 26.821 7.20402 26.3525 6.97695 25.8043C6.74989 25.2561 6.69048 24.6529 6.80624 24.071C6.92199 23.489 7.20772 22.9545 7.62727 22.5349C8.04683 22.1154 8.58138 21.8296 9.16332 21.7139C9.74527 21.5981 10.3485 21.6575 10.8966 21.8846C11.4448 22.1117 11.9134 22.4962 12.243 22.9895C12.5726 23.4829 12.7486 24.0629 12.7486 24.6562C12.7486 25.4519 12.4325 26.215 11.8699 26.7776C11.3073 27.3402 10.5442 27.6562 9.74859 27.6562ZM13.4986 9C13.4986 8.40666 13.6745 7.82664 14.0042 7.33329C14.3338 6.83994 14.8024 6.45542 15.3505 6.22836C15.8987 6.0013 16.5019 5.94189 17.0839 6.05764C17.6658 6.1734 18.2004 6.45912 18.6199 6.87868C19.0395 7.29824 19.3252 7.83279 19.4409 8.41473C19.5567 8.99667 19.4973 9.59987 19.2702 10.1481C19.0432 10.6962 18.6586 11.1648 18.1653 11.4944C17.672 11.8241 17.0919 12 16.4986 12C15.7029 12 14.9399 11.6839 14.3773 11.1213C13.8147 10.5587 13.4986 9.79565 13.4986 9ZM19.4986 34.4062C18.6086 34.4062 17.7385 34.1423 16.9985 33.6479C16.2585 33.1534 15.6817 32.4506 15.3411 31.6283C15.0005 30.8061 14.9114 29.9013 15.0851 29.0283C15.2587 28.1554 15.6873 27.3536 16.3166 26.7243C16.9459 26.0949 17.7478 25.6663 18.6207 25.4927C19.4936 25.3191 20.3984 25.4082 21.2207 25.7488C22.0429 26.0894 22.7457 26.6662 23.2402 27.4062C23.7347 28.1462 23.9986 29.0162 23.9986 29.9062C23.9986 31.0997 23.5245 32.2443 22.6806 33.0882C21.8367 33.9321 20.6921 34.4062 19.4986 34.4062ZM26.2486 12C25.6552 12 25.0752 11.8241 24.5819 11.4944C24.0885 11.1648 23.704 10.6962 23.477 10.1481C23.2499 9.59987 23.1905 8.99667 23.3062 8.41473C23.422 7.83279 23.7077 7.29824 24.1273 6.87868C24.5468 6.45912 25.0814 6.1734 25.6633 6.05764C26.2453 5.94189 26.8485 6.0013 27.3966 6.22836C27.9448 6.45542 28.4134 6.83994 28.743 7.33329C29.0726 7.82664 29.2486 8.40666 29.2486 9C29.2486 9.79565 28.9325 10.5587 28.3699 11.1213C27.8073 11.6839 27.0442 12 26.2486 12Z" fill="currentColor"/>
</svg>
