<svg width="48" height="34" viewBox="0 0 48 34" fill="none" xmlns="http://www.w3.org/2000/svg">
<path d="M48 4.8V1.9176C47.9994 1.40922 47.7971 0.921837 47.4376 0.562355C47.0782 0.202873 46.5908 0.000636586 46.0824 1.50201e-06H1.9224C1.67026 -0.000313868 1.42053 0.0490361 1.18747 0.145234C0.9544 0.241432 0.742564 0.382593 0.564053 0.560659C0.385542 0.738725 0.243851 0.950207 0.147071 1.18303C0.0502907 1.41586 0.000316478 1.66546 1.50202e-06 1.9176V4.8H4.8V9.6H1.50202e-06V14.4H4.8V19.2H1.50202e-06V24H4.8V28.8H1.50202e-06V31.6776C-0.000314373 31.9301 0.0491944 32.1803 0.145692 32.4137C0.24219 32.647 0.383781 32.8591 0.562355 33.0377C0.740929 33.2162 0.952978 33.3578 1.18636 33.4543C1.41974 33.5508 1.66986 33.6003 1.9224 33.6H46.0824C46.3345 33.5997 46.5841 33.5497 46.817 33.4529C47.0498 33.3562 47.2613 33.2145 47.4393 33.036C47.6174 32.8574 47.7586 32.6456 47.8548 32.4125C47.951 32.1795 48.0003 31.9297 48 31.6776V28.8H43.2V24H48V19.2H43.2V14.4H48V9.6H43.2V4.8H48ZM19.2 24V9.6L31.2 16.8L19.2 24Z" fill="currentColor"/>
</svg>
